<svg xmlns="http://www.w3.org/2000/svg" data-name="Layer 1" viewBox="0 0 100 125" x="0px" y="0px">
    <title>06</title>
    <path
        d="M8.92,53.12V75.85a3,3,0,0,0,6,0v-20H34.59v20a3,3,0,0,0,6,0v-23a3,3,0,0,0-3-3H14.36L8.87,23.54A3,3,0,1,0,3,24.76Z"/>
    <path
        d="M94.6,21.2a3,3,0,0,0-3.48,2.42l-4.69,26.2H63.26a3,3,0,0,0-3,3v23a3,3,0,0,0,6,0v-20H85.94v20a3,3,0,0,0,6,0V53.08L97,24.68A3,3,0,0,0,94.6,21.2Z"/>
    <path d="M70,38.27a3,3,0,0,0,0-6H30.85a3,3,0,1,0,0,6H47.43V75.85a3,3,0,0,0,6,0V38.27Z"/>
   </svg>
